<?xml version="1.0" encoding="UTF-8" standalone="no"?>
<!-- Created with Inkscape (http://www.inkscape.org/) -->

<svg
   xmlns:dc="http://purl.org/dc/elements/1.1/"
   xmlns:cc="http://creativecommons.org/ns#"
   xmlns:rdf="http://www.w3.org/1999/02/22-rdf-syntax-ns#"
   xmlns:svg="http://www.w3.org/2000/svg"
   xmlns="http://www.w3.org/2000/svg"
   xmlns:sodipodi="http://sodipodi.sourceforge.net/DTD/sodipodi-0.dtd"
   xmlns:inkscape="http://www.inkscape.org/namespaces/inkscape"
   width="20mm"
   height="20mm"
   viewBox="0 0 20 20"
   version="1.1"
   id="svg8"
   inkscape:version="0.92.3 (2405546, 2018-03-11)"
   sodipodi:docname="icon.svg">
  <defs
     id="defs2" />
  <sodipodi:namedview
     id="base"
     pagecolor="#ffffff"
     bordercolor="#666666"
     borderopacity="1.0"
     inkscape:pageopacity="0.0"
     inkscape:pageshadow="2"
     inkscape:zoom="1.6025373"
     inkscape:cx="-238.8576"
     inkscape:cy="11.771781"
     inkscape:document-units="mm"
     inkscape:current-layer="layer1"
     showgrid="false"
     inkscape:window-width="1600"
     inkscape:window-height="832"
     inkscape:window-x="0"
     inkscape:window-y="32"
     inkscape:window-maximized="1"
     inkscape:pagecheckerboard="true"
     showborder="true"
     borderlayer="false" />
  <metadata
     id="metadata5">
    <rdf:RDF>
      <cc:Work
         rdf:about="">
        <dc:format>image/svg+xml</dc:format>
        <dc:type
           rdf:resource="http://purl.org/dc/dcmitype/StillImage" />
        <dc:title></dc:title>
      </cc:Work>
    </rdf:RDF>
  </metadata>
  <g
     inkscape:label="Layer 1"
     inkscape:groupmode="layer"
     id="layer1"
     transform="translate(0,-277)">
    <rect
       id="rect10"
       width="20"
       height="20"
       x="0"
       y="277"
       style="fill:#0000ff;stroke-width:0.26458332"
       ry="0"
       rx="5.2832885"
       inkscape:export-xdpi="325.12"
       inkscape:export-ydpi="325.12" />
    <g
       aria-label="V"
       transform="matrix(1.0293706,0,0,0.77718856,-8.6147656e-5,57.89383)"
       style="font-style:normal;font-weight:normal;font-size:19.74511719px;line-height:1.25;font-family:sans-serif;letter-spacing:0px;word-spacing:0px;fill:#ffffff;fill-opacity:1;stroke:none;stroke-width:0.49362791"
       id="text14"
       inkscape:export-xdpi="325.12"
       inkscape:export-ydpi="325.12">
      <path
         style="font-style:normal;font-variant:normal;font-weight:bold;font-stretch:normal;font-family:prisma;-inkscape-font-specification:'prisma Bold';fill:#ffffff;stroke-width:1.86568022"
         d="m 9.4492188,1056.3789 21.7402342,56.6914 h 1.458985 l -21.740235,-56.6914 z m 2.9179692,0 21.740234,56.6914 h 1.460937 l -21.740234,-56.6914 z m 2.84375,0 21.892578,56.6914 H 38.5625 l -21.816406,-56.6914 z m 2.996093,0 21.738281,56.6914 h 1.53711 l -21.816406,-56.6914 z m 2.996094,0 21.662109,56.6914 h 1.458985 l 21.818359,-56.6914 h -1.460937 l -21.125,54.8789 -0.691407,-1.8848 20.28125,-52.9941 h -1.460937 l -19.587891,51.0371 -0.691406,-1.957 18.820312,-49.0801 h -1.458984 l -18.130859,47.1953 -0.691407,-1.8125 17.285157,-45.3828 h -1.458985 l -16.59375,43.3516 -0.691406,-1.8106 15.902344,-41.541 H 22.662114 l 15.056641,39.5098 -15.056641,-39.5098 z"
         transform="scale(0.25703207,0.27235645)"
         id="path70"
         inkscape:connector-curvature="0"
         sodipodi:nodetypes="cccccccccccccccccccccccccccccccccccccccccccc" />
    </g>
  </g>
</svg>
